<?xml version="1.0" encoding="utf-8"?>
<svg width="800px" height="800px" viewBox="0 0 400 400" xmlns="http://www.w3.org/2000/svg">
  <path d="M89.3 336.5L119.9 318.1C125.5 328.5 130.6 337.1 142.8 337.1C154.5 337.1 162 332.5 162 315.3V185.6H200V315.8C200 355.1 177.5 373.5 144.6 373.5C115.1 373.5 98.1 357.4 89.3 336.5Z" fill="rgba(0, 255, 157, 0.15)"/>
  <path d="M219.2 333.1L249.8 315.8C257.5 328.5 267.4 337.6 284.6 337.6C299 337.6 308.4 330.4 308.4 320.5C308.4 308.3 298.5 304.2 281.8 297.5L272.4 293.9C246.2 283.5 229.5 270.3 229.5 240.8C229.5 213.6 250.3 193.3 283.1 193.3C306.6 193.3 323.8 201.6 336.5 223.4L307.4 242.2C301.3 230.5 294.6 225.9 283.1 225.9C271.4 225.9 264.1 233.2 264.1 242.2C264.1 253.4 271.4 257.5 286.7 263.7L296.1 267.3C327 279.5 343.7 292.2 343.7 322.7C343.7 355.6 317.8 373.5 285.6 373.5C254.4 373.5 231.4 357.4 219.2 333.1Z" fill="rgba(0, 255, 157, 0.15)"/>
</svg>
